# xmcd
#
# Track frame offsets: 
#        150
#        13333
#        24089
#        34335
#        45209
#        57135
#        68781
#        80523
#        91039
#        102088
#        114203
#        125243
#        135811
#        146761
#        157008
#        169039
#        180142
#        191187
#        201924
#        213728
#        225323
#        235424
#        245474
#        255933
#        266308
#        280043
#        293320
#        303622
#
# Disc length: 4211 seconds
#
# Revision: 0
# Processed by: cddbd v1.5.2PL0 Copyright (c) Steve Scherf et al.
# Submitted via: ExactAudioCopyFreeDBPlugin 1.0
#
DISCID=7210711c
DTITLE=Various Artist - Feelin' Right Saturday Night The Ric and Ron Anthology 
DYEAR=2018
DGENRE=Bayou Funk
TTITLE0=Professor Longhair - Go To the Mardi Gras
TTITLE1=Chris Kenner - Rocket to the Moon
TTITLE2=Eddie Bo - Every Dog Got His Day
TTITLE3=Irma Thomas - I May Be Wrong
TTITLE4=Robert Parker - Walkin’
TTITLE5=Johnny Adams - A Losing Battle
TTITLE6=Martha Carter - You Can If You Think You Can
TTITLE7=Irma Thomas - Don’t Mess with My Man
TTITLE8=Al Johnson - You Done Me Wrong
TTITLE9=Johnny Adams - Life Is Just a Struggle
TTITLE10=Edgar Blanchard - Lonesome Guitar
TTITLE11=Eddie Bo - Tell It Like It Is
TTITLE12=Professor Longhair - Tipitina (demo)
TTITLE13=Lenny Capello and The Dots - Tootles
TTITLE14=Al Johnson - Carnival Time
TTITLE15=Tommy Ridgley - Double Eye Whammy
TTITLE16=Eddie Bo - Good Enough for Me
TTITLE17=Johnny Adams - (Oh Why) I Won’t Cry
TTITLE18=Professor Longhair - Cuttin’ Out
TTITLE19=Joe Jones - You Talk Too Much
TTITLE20=Martha Nelson -  I Don’t Talk Too Much
TTITLE21=Eddie Bo - Check Mr. Popeye (Part 1)
TTITLE22=Mercy Baby - Pleadin’
TTITLE23=Lee Tillman and Buddy Stewart’s Top Notchers - Will Travel
TTITLE24=Barbara Lynn - Found My Good Thing
TTITLE25=Tommy Ridgley - In the Same Old Way
TTITLE26=Eddie Bo - Dinky Doo
TTITLE27=The Velvetiers - Feelin’ Right Saturday Night
EXTD=
EXTT0=
EXTT1=
EXTT2=
EXTT3=
EXTT4=
EXTT5=
EXTT6=
EXTT7=
EXTT8=
EXTT9=
EXTT10=
EXTT11=
EXTT12=
EXTT13=
EXTT14=
EXTT15=
EXTT16=
EXTT17=
EXTT18=
EXTT19=
EXTT20=
EXTT21=
EXTT22=
EXTT23=
EXTT24=
EXTT25=
EXTT26=
EXTT27=
PLAYORDER=
